# xmcd
#
# Track frame offsets: 
#        180
#        22984
#        48721
#        70161
#        87170
#        111546
#
# Disc length: 1800 seconds
#
# Revision: 2
# Processed by: cddbd v1.5.2PL0 Copyright (c) Steve Scherf et al.
# Submitted via: ExactAudioCopy v0.99pb4
#
DISCID=4d070606
DTITLE=Johnny Guitar Watson - Sampler
DYEAR=1994
DGENRE=Blues
TTITLE0=A Real Mother For Ya
TTITLE1=Superman Lover
TTITLE2=Love Jones
TTITLE3=Giant
TTITLE4=Lover Jones
TTITLE5=Funk Beyond The Call of Duty
EXTD=
EXTT0=
EXTT1=
EXTT2=
EXTT3=
EXTT4=
EXTT5=
PLAYORDER=
